<svg width="66" height="66" viewBox="0 0 66 66" fill="none" xmlns="http://www.w3.org/2000/svg">
<path d="M64.5379 35.1904C64.5379 40.2117 50.4189 44.2452 32.9999 44.2452C15.5809 44.2452 1.46191 40.2117 1.46191 35.1904" stroke="#1A1A1A" stroke-width="2" stroke-miterlimit="10" stroke-linecap="round" stroke-linejoin="round"/>
<path d="M1.46191 30.251C1.46191 25.2298 15.5809 21.1963 32.9999 21.1963C50.4189 21.1963 64.5379 25.2298 64.5379 30.251" stroke="#1A1A1A" stroke-width="2" stroke-miterlimit="10" stroke-linecap="round" stroke-linejoin="round"/>
<path d="M33 63.7943C50.5333 63.7943 64.7468 49.7898 64.7468 32.5143C64.7468 15.2389 50.5333 1.23438 33 1.23438C15.4667 1.23438 1.25317 15.2389 1.25317 32.5143C1.25317 49.7898 15.4667 63.7943 33 63.7943Z" stroke="#FF5641" stroke-width="2" stroke-miterlimit="10" stroke-linecap="round" stroke-linejoin="round"/>
<path d="M33 63.7943C42.8048 63.7943 50.7532 49.7898 50.7532 32.5143C50.7532 15.2389 42.8048 1.23438 33 1.23438C23.1952 1.23438 15.2468 15.2389 15.2468 32.5143C15.2468 49.7898 23.1952 63.7943 33 63.7943Z" stroke="#FF5641" stroke-width="2" stroke-miterlimit="10" stroke-linecap="round" stroke-linejoin="round"/>
<path d="M33 1.23438V63.7943" stroke="#FF5641" stroke-width="2" stroke-miterlimit="10" stroke-linecap="round" stroke-linejoin="round"/>
</svg>
