<svg width="19" height="18" viewBox="0 0 19 18" fill="none" xmlns="http://www.w3.org/2000/svg">
<path d="M9.02412 4.40582C8.86555 4.40582 8.7087 4.41391 8.55417 4.42974C8.39963 4.44557 8.24724 4.46902 8.09744 4.49981C7.94764 4.5306 7.8005 4.56873 7.65631 4.61373L7.23309 4.76913L6.83014 4.9637L6.4499 5.19507L6.09462 5.46081L5.76678 5.75861L5.46869 6.08617L5.20266 6.44105L4.971 6.82094L4.77632 7.22342C4.71779 7.36109 4.66574 7.50222 4.62068 7.6463C4.57562 7.79037 4.5375 7.93746 4.50665 8.08708C4.4758 8.2367 4.45234 8.38893 4.43646 8.54335C4.42057 8.69776 4.4126 8.85444 4.4126 9.01284C4.4126 9.17124 4.42069 9.32792 4.43646 9.48233C4.45214 9.63553 4.47557 9.78783 4.50665 9.93866C4.5375 10.0889 4.57562 10.2354 4.62068 10.3794C4.66574 10.5235 4.71774 10.6646 4.77632 10.8023L4.971 11.2048L5.20266 11.5846L5.46869 11.9396L5.76678 12.2671L6.09462 12.5649L6.4499 12.8307L6.83014 13.062L7.23309 13.2566L7.65631 13.412L8.09744 13.5259C8.2484 13.557 8.40084 13.5804 8.55417 13.5961C8.71031 13.612 8.86717 13.6199 9.02412 13.6199C9.1827 13.6199 9.33955 13.6118 9.49402 13.5961C9.64735 13.5804 9.79979 13.557 9.95075 13.5259L10.3919 13.412L10.8152 13.2566L11.218 13.062L11.5983 12.8307L11.9536 12.5649L12.2815 12.2671L12.5796 11.9396L12.8456 11.5846L13.0773 11.2048L13.272 10.8023L13.4276 10.3794C13.4727 10.2354 13.5108 10.0883 13.5417 9.93866L13.6118 9.48228C13.6277 9.32786 13.6358 9.17119 13.6358 9.01278C13.6358 8.85438 13.6277 8.69771 13.6118 8.54329C13.5962 8.39011 13.5727 8.23783 13.5417 8.08702C13.5108 7.93682 13.4727 7.79037 13.4276 7.64624L13.272 7.22336L13.0773 6.82088L12.8456 6.44099L12.5796 6.08611L12.2815 5.75856L11.9536 5.46075L11.5983 5.19501L11.218 4.96364L10.8152 4.76908L10.3919 4.61367L9.95075 4.49975L9.49402 4.42968C9.3379 4.41373 9.18106 4.40575 9.02412 4.40576V4.40582ZM9.02412 5.99599C9.12898 5.99599 9.23244 6.00119 9.33435 6.01147L9.63475 6.05694L9.92493 6.13088L10.2028 6.23181L10.467 6.35832L10.7154 6.50881L10.9476 6.68195L11.1617 6.87617L11.3561 7.09003L11.5294 7.32204L11.6801 7.57079L11.8066 7.8348C11.8446 7.92515 11.8784 8.01776 11.9077 8.11244C11.937 8.20713 11.9617 8.30389 11.9816 8.40244C12.0016 8.501 12.0163 8.60129 12.0271 8.70314L12.0426 9.01313C12.0426 9.11787 12.0374 9.22127 12.0271 9.32318C12.0168 9.42508 12.0017 9.52537 11.9816 9.62387C11.9616 9.72237 11.9369 9.81913 11.9077 9.91387L11.8066 10.1915L11.6801 10.4555L11.5294 10.7042L11.3561 10.9363L11.1617 11.1501L10.9476 11.3444L10.7154 11.5175L10.467 11.668L10.2028 11.7945L9.92493 11.8954L9.63475 11.9694L9.33435 12.0148C9.23124 12.0251 9.12769 12.0303 9.02407 12.0303C8.92043 12.0303 8.81685 12.0251 8.71373 12.0148L8.41332 11.9694C8.31471 11.9494 8.21789 11.9247 8.12309 11.8954L7.84522 11.7945L7.58104 11.668L7.33263 11.5175L7.10039 11.3444L6.8863 11.1501L6.6919 10.9363L6.51859 10.7042L6.36793 10.4555L6.24141 10.1915L6.14032 9.91387L6.06637 9.62387L6.02091 9.32318C6.01057 9.22015 6.0054 9.11667 6.00542 9.01313C6.0054 8.9096 6.01057 8.80614 6.02091 8.70314C6.03113 8.60129 6.04633 8.50094 6.06637 8.40244C6.08622 8.30463 6.11092 8.20786 6.14037 8.1125L6.24147 7.83486L6.36799 7.57085L6.51865 7.32209L6.69196 7.09009L6.88635 6.87623L7.10045 6.682L7.33268 6.50887L7.58109 6.35838L7.84527 6.23186C7.9362 6.19368 8.02896 6.16 8.12321 6.13094L8.41344 6.05699C8.51205 6.03701 8.61246 6.02175 8.71384 6.01153C8.81697 6.0012 8.92054 5.99603 9.02418 5.99605L9.02412 5.99599Z" fill="#1A1A1A"/>
<path d="M13.8228 3.0957C13.7862 3.09571 13.7496 3.09756 13.7132 3.10125C13.6767 3.10493 13.6405 3.11045 13.6046 3.11777C13.5687 3.12509 13.5332 3.13421 13.4983 3.1451C13.4633 3.15599 13.4289 3.16864 13.3951 3.18299C13.3614 3.19736 13.3284 3.21343 13.2963 3.23112C13.2642 3.24877 13.2329 3.26803 13.2027 3.28883C13.1725 3.30965 13.1433 3.33197 13.1153 3.35573C13.0873 3.37945 13.0605 3.40458 13.035 3.431C13.0095 3.45744 12.9853 3.48514 12.9626 3.51401C12.9398 3.54289 12.9185 3.57289 12.8987 3.6039C12.879 3.6349 12.8607 3.66686 12.8441 3.69969C12.8275 3.73253 12.8125 3.7662 12.7992 3.80055C12.786 3.8349 12.7744 3.86989 12.7646 3.9054C12.7549 3.94091 12.7468 3.97689 12.7406 4.0132C12.7344 4.04951 12.73 4.0861 12.7274 4.12285C12.7255 4.14888 12.7246 4.17497 12.7246 4.20107C12.7246 4.23794 12.7264 4.27478 12.7301 4.31147C12.7338 4.34813 12.7392 4.38459 12.7465 4.42071C12.7538 4.45683 12.7628 4.49255 12.7737 4.52776C12.7845 4.56297 12.7971 4.59762 12.8113 4.63157C12.8256 4.66553 12.8415 4.69875 12.8591 4.73111C12.8766 4.76346 12.8958 4.7949 12.9165 4.82533C12.9371 4.85573 12.9593 4.88508 12.9829 4.91325C13.0065 4.94145 13.0314 4.96844 13.0577 4.99413C13.084 5.0198 13.1115 5.04413 13.1402 5.06704C13.1689 5.08995 13.1987 5.11141 13.2295 5.13133C13.2603 5.15125 13.2921 5.16961 13.3248 5.18633C13.3574 5.20306 13.3908 5.21814 13.425 5.23151C13.4591 5.24486 13.4938 5.25649 13.5291 5.26634C13.5644 5.27618 13.6001 5.28424 13.6362 5.29049C13.6723 5.29676 13.7087 5.30122 13.7452 5.30384C13.771 5.30568 13.7969 5.30661 13.8229 5.30661C13.8595 5.30662 13.8961 5.30479 13.9325 5.30112C13.969 5.29744 14.0052 5.29192 14.0411 5.2846C14.0769 5.27728 14.1124 5.26816 14.1474 5.25727C14.1824 5.24638 14.2168 5.23373 14.2505 5.21938C14.2843 5.20502 14.3173 5.18898 14.3494 5.17131C14.3815 5.15364 14.4128 5.13436 14.443 5.11354C14.4732 5.09274 14.5024 5.07043 14.5304 5.0467C14.5584 5.02295 14.5852 4.99781 14.6107 4.97137C14.6362 4.94493 14.6604 4.91723 14.6831 4.88836C14.7059 4.85948 14.7272 4.82948 14.747 4.79847C14.7667 4.76746 14.7849 4.73547 14.8015 4.70263C14.8182 4.66978 14.8332 4.63611 14.8464 4.60176C14.8597 4.56741 14.8712 4.53242 14.881 4.49691C14.8908 4.4614 14.8988 4.42542 14.9051 4.38911C14.9113 4.35281 14.9157 4.31621 14.9183 4.27946C14.9201 4.25343 14.9211 4.22734 14.9211 4.20124C14.9211 4.16439 14.9192 4.12757 14.9156 4.0909C14.9119 4.05424 14.9065 4.01778 14.8992 3.98166C14.8919 3.94554 14.8828 3.90982 14.872 3.87461C14.8612 3.8394 14.8486 3.80475 14.8344 3.7708C14.8201 3.73684 14.8041 3.70362 14.7866 3.67126C14.769 3.63891 14.7499 3.60747 14.7292 3.57704C14.7085 3.54661 14.6863 3.51725 14.6627 3.48906C14.6392 3.46086 14.6142 3.43387 14.588 3.40818C14.5617 3.38251 14.5342 3.35818 14.5055 3.33527C14.4768 3.31238 14.447 3.29094 14.4162 3.27103C14.3853 3.25111 14.3535 3.23276 14.3209 3.21604C14.2883 3.19931 14.2548 3.18423 14.2207 3.17086C14.1866 3.15751 14.1518 3.14588 14.1166 3.13603C14.0813 3.12617 14.0455 3.11809 14.0095 3.11182C13.9734 3.10557 13.937 3.10113 13.9005 3.09853C13.8747 3.09669 13.8487 3.09576 13.8228 3.09576V3.0957Z" fill="#1A1A1A"/>
<path d="M8.14963 0.000168002C7.64808 -0.000640774 7.20048 0.00143865 6.7984 0.00710009L5.72042 0.0359849C5.40107 0.0498497 5.11892 0.0679303 4.86565 0.091327C4.73902 0.102997 4.61956 0.116053 4.50633 0.130437C4.39858 0.144018 4.29112 0.159832 4.18403 0.177867C4.08207 0.195198 3.9853 0.213914 3.89252 0.234249C3.79975 0.254584 3.71113 0.276538 3.62563 0.300108C3.54204 0.323156 3.45911 0.348507 3.37693 0.376133C3.2964 0.403285 3.21783 0.432054 3.14025 0.462788C2.98508 0.524255 2.83372 0.59323 2.67786 0.670526C2.55793 0.730029 2.44713 0.790283 2.34187 0.854061C2.23661 0.917839 2.1369 0.985199 2.03927 1.05857C1.93873 1.13449 1.84182 1.21511 1.74886 1.30016C1.65169 1.38866 1.55245 1.486 1.44933 1.59478C1.31975 1.73072 1.20716 1.85746 1.10721 1.98184C1.05724 2.044 1.01045 2.10547 0.966372 2.16728C0.922781 2.2282 0.881108 2.29047 0.841416 2.35399C0.802133 2.41696 0.764929 2.48109 0.729343 2.54706C0.693202 2.61417 0.659045 2.68233 0.626917 2.75145C0.561175 2.89264 0.499824 3.04469 0.438588 3.21442C0.393159 3.33989 0.352479 3.46704 0.316636 3.59558C0.280068 3.72695 0.247543 3.86438 0.218543 4.01302C0.189542 4.16167 0.164239 4.32152 0.141998 4.49829C0.11803 4.69206 0.0988836 4.8864 0.0845748 5.08113C0.0683993 5.29522 0.0549967 5.53081 0.0440205 5.79303L0.0180242 6.66489L0.00404386 7.72768L0 9.0123L0.0118428 10.8804L0.0488154 12.2958L0.0772959 12.8486L0.112882 13.3067C0.12429 13.4302 0.138563 13.5534 0.15569 13.6762C0.171287 13.7853 0.18804 13.8807 0.206065 13.9633C0.242637 14.1313 0.285883 14.2977 0.3357 14.4622C0.383399 14.6198 0.437947 14.7751 0.499188 14.9279C0.559384 15.0775 0.625242 15.2218 0.696876 15.3607C0.768511 15.4996 0.845922 15.633 0.92911 15.7612C1.0123 15.8894 1.10126 16.0123 1.19624 16.13C1.2911 16.2477 1.39201 16.3604 1.49855 16.4676C1.60525 16.5751 1.71778 16.6773 1.83638 16.7745C1.95639 16.8727 2.08113 16.9651 2.21015 17.0512C2.32991 17.1313 2.4484 17.2046 2.56775 17.2719C2.6871 17.3392 2.80749 17.4002 2.93124 17.4557C3.05498 17.5113 3.18184 17.5612 3.31436 17.6062C3.44689 17.6511 3.58496 17.6911 3.73088 17.7266C3.87681 17.762 4.03129 17.7932 4.19478 17.8203C4.35826 17.8475 4.53302 17.8708 4.71973 17.8908C4.90644 17.9109 5.10563 17.9274 5.31967 17.9413C5.5337 17.9552 5.76247 17.9663 6.00828 17.9752C6.388 17.9889 6.96281 17.9969 7.62566 18L9.77152 17.9957L11.8035 17.9672L12.5761 17.9455L13.0795 17.9196C13.1875 17.9108 13.2932 17.9004 13.3952 17.8882C13.4973 17.876 13.5979 17.8621 13.6959 17.8463C13.7938 17.8304 13.8896 17.8128 13.9837 17.7931C14.0768 17.7738 14.1693 17.7521 14.2613 17.7282C14.3523 17.7051 14.4421 17.6789 14.5309 17.651C14.6198 17.623 14.7077 17.5929 14.7951 17.5605C14.883 17.528 14.9701 17.4933 15.0563 17.4565C15.1432 17.4195 15.2299 17.38 15.3169 17.3381C15.4505 17.2737 15.5581 17.22 15.6525 17.1677C15.7414 17.1189 15.8269 17.0644 15.9087 17.0045C15.9893 16.9451 16.0695 16.8775 16.1619 16.7924C16.2544 16.7072 16.3591 16.6046 16.4888 16.4749C16.6028 16.361 16.6989 16.2619 16.7818 16.1719C16.8647 16.0818 16.9346 16.0008 16.9958 15.9227C17.0542 15.8485 17.1086 15.7714 17.1587 15.6915C17.2076 15.6135 17.2527 15.5325 17.2986 15.4426C17.3677 15.3075 17.4292 15.1823 17.4842 15.0615C17.5377 14.9451 17.5865 14.8266 17.6306 14.7063C17.6741 14.587 17.7117 14.4656 17.7433 14.3427C17.7759 14.2161 17.804 14.0826 17.8283 13.9361C17.8525 13.7896 17.873 13.6301 17.8908 13.4521C17.9086 13.274 17.9237 13.0773 17.937 12.8562L17.9723 12.114L18.0025 11.191L18.0242 10.1627L18.0325 9.08752L18.0132 6.97574L17.9874 6.02988L17.9521 5.21775L17.9082 4.5846C17.8923 4.4084 17.875 4.26964 17.8568 4.17582C17.8366 4.07216 17.814 3.96897 17.7891 3.86635C17.7648 3.76649 17.7381 3.66723 17.7091 3.56866C17.6807 3.47263 17.65 3.37734 17.6168 3.28287C17.5839 3.18958 17.5492 3.09824 17.5128 3.00887C17.4764 2.9195 17.437 2.83221 17.396 2.74677C17.3549 2.66133 17.312 2.57797 17.2669 2.49651C17.2217 2.41506 17.1747 2.33562 17.1255 2.25815C17.0764 2.18068 17.0252 2.10518 16.9719 2.0317C16.9189 1.95845 16.8636 1.88688 16.8061 1.81708C16.7489 1.74767 16.6895 1.68009 16.628 1.61443C16.5667 1.54885 16.5032 1.48523 16.4378 1.42367C16.3723 1.36209 16.3049 1.30247 16.2354 1.24482C16.1656 1.18697 16.094 1.13131 16.0207 1.07792C15.9467 1.02398 15.871 0.972311 15.7938 0.922981C15.7155 0.87295 15.6358 0.825249 15.5547 0.779943C15.4722 0.733877 15.3884 0.690185 15.3034 0.648921C15.1624 0.580348 15.0319 0.519518 14.9038 0.465561C14.7779 0.412012 14.6496 0.364452 14.5192 0.323042C14.3881 0.281737 14.2516 0.246324 14.1014 0.215764C13.9512 0.185204 13.7874 0.159728 13.602 0.138064C13.4166 0.1164 13.2096 0.0988965 12.9729 0.0843385C12.7361 0.0697806 12.4699 0.0583412 12.1658 0.0490981L11.1326 0.0259905L9.82484 0.0105661L8.15021 0.000282596L8.14963 0.000168002ZM9.01936 1.58895L11.4343 1.6027L12.3453 1.62026C12.5962 1.62731 12.7877 1.63557 12.8999 1.6451C13.0461 1.65741 13.1853 1.67283 13.3185 1.69132C13.4463 1.70896 13.5734 1.73091 13.6997 1.75712C13.8211 1.78254 13.9368 1.81142 14.0475 1.844C14.1583 1.87659 14.264 1.9131 14.3655 1.95348C14.467 1.99386 14.5641 2.03828 14.6575 2.08693C14.7502 2.1352 14.8402 2.18833 14.9273 2.24608C15.0139 2.30356 15.0975 2.36549 15.1786 2.43221C15.2597 2.49894 15.3383 2.57046 15.4151 2.64694C15.4962 2.72765 15.5709 2.80986 15.6398 2.89466C15.7085 2.97894 15.772 3.06728 15.8301 3.15919C15.8888 3.25241 15.9417 3.34917 15.9885 3.4489C16.0363 3.55058 16.0793 3.65803 16.1179 3.77224C16.1565 3.88645 16.1908 4.00783 16.2213 4.13752C16.2532 4.27502 16.2799 4.41367 16.3013 4.55317C16.3245 4.70106 16.3442 4.85877 16.361 5.02763C16.3777 5.1965 16.3916 5.37656 16.403 5.56923C16.4121 5.72376 16.4201 5.92769 16.4269 6.16853L16.4438 6.98973L16.4567 9.00127L16.442 11.0109L16.4243 11.8297L16.4 12.4253C16.3831 12.7041 16.3654 12.9386 16.3441 13.1426C16.3334 13.2446 16.3219 13.339 16.309 13.4276C16.297 13.5113 16.2828 13.5946 16.2663 13.6775C16.2513 13.7531 16.2339 13.8283 16.2141 13.9028C16.1951 13.9739 16.1737 14.0444 16.15 14.1141C16.1261 14.1841 16.1001 14.2534 16.0721 14.3218C16.0424 14.3941 16.0111 14.4657 15.9782 14.5365C15.9489 14.5998 15.9181 14.6613 15.8855 14.7212C15.8533 14.7805 15.8191 14.8387 15.7829 14.8957C15.7471 14.9521 15.7096 15.0069 15.6703 15.06C15.6312 15.113 15.5902 15.1644 15.5474 15.2144C15.5048 15.2642 15.4603 15.3123 15.4142 15.3588C15.368 15.4053 15.32 15.4502 15.2703 15.4935C15.2206 15.5369 15.1691 15.5785 15.1158 15.6186C15.0625 15.6586 15.0073 15.6971 14.9503 15.734C14.8933 15.7708 14.8345 15.8062 14.7737 15.8399C14.713 15.8737 14.6504 15.9059 14.586 15.9366C14.5205 15.9677 14.454 15.9969 14.3867 16.024C14.3172 16.0521 14.2469 16.0782 14.1759 16.1023C14.0315 16.1515 13.8791 16.1948 13.7187 16.232C13.5516 16.2706 13.3829 16.3022 13.2131 16.3266C13.1479 16.3362 12.9978 16.3451 12.7829 16.3534L11.964 16.3762L9.64223 16.4064L7.21209 16.4102L6.25773 16.4L5.63804 16.3807L5.18108 16.3486C5.0392 16.3366 4.90725 16.3233 4.78362 16.3083C4.65999 16.2932 4.54486 16.2764 4.43654 16.2574C4.3339 16.2397 4.23187 16.2185 4.13065 16.1939C4.03836 16.1714 3.947 16.1453 3.85682 16.1154C3.76988 16.0866 3.68675 16.0548 3.60587 16.0198C3.52499 15.9849 3.44643 15.9466 3.36861 15.9047C3.29079 15.8629 3.21379 15.8175 3.13591 15.768C3.07716 15.7307 3.02037 15.6929 2.96572 15.6529C2.91107 15.6128 2.85827 15.5729 2.80744 15.5311C2.7566 15.4893 2.70778 15.4462 2.6607 15.4018C2.61393 15.3577 2.56876 15.3118 2.52529 15.2644C2.48196 15.2172 2.44054 15.1685 2.40079 15.1182C2.36089 15.0676 2.32288 15.0156 2.28681 14.9622C2.25022 14.908 2.21559 14.8525 2.183 14.7958C2.15007 14.7386 2.11876 14.6795 2.08901 14.6184C2.05876 14.5563 2.03054 14.4931 2.00438 14.4291C1.9778 14.364 1.95262 14.2967 1.92893 14.2273C1.88156 14.0884 1.83997 13.9405 1.8038 13.7828C1.76764 13.625 1.73679 13.4575 1.71068 13.279C1.68457 13.1005 1.66354 12.9112 1.64678 12.7101C1.63442 12.5619 1.6246 12.3311 1.61709 12.04L1.60138 11.0044L1.60715 8.36464L1.65262 5.84219L1.68728 4.95346L1.70692 4.6597C1.71374 4.58125 1.72079 4.52313 1.72801 4.48824C1.75181 4.37345 1.77578 4.26663 1.80057 4.16664C1.82372 4.0723 1.84947 3.97862 1.87781 3.8857C1.90473 3.79801 1.93309 3.71586 1.96342 3.63804C1.99267 3.56266 2.02526 3.48862 2.06111 3.41615C2.09612 3.34567 2.13372 3.27819 2.17457 3.21251C2.21541 3.14683 2.25949 3.08311 2.30755 3.01973C2.35562 2.95636 2.40738 2.89379 2.46371 2.83036C2.52003 2.76693 2.58086 2.70287 2.64684 2.63684C2.72372 2.55951 2.80378 2.4854 2.88681 2.41471C2.96521 2.34801 3.04696 2.28537 3.13175 2.22702C3.21512 2.16925 3.30062 2.11783 3.38964 2.07058C3.47866 2.02332 3.57121 1.98063 3.66855 1.94221C3.76589 1.9038 3.86815 1.86942 3.97646 1.83823C4.09026 1.80631 4.20532 1.77907 4.32135 1.7566C4.44336 1.73268 4.57294 1.71183 4.71129 1.69363C4.84965 1.67543 4.99685 1.65972 5.15421 1.64608C5.26398 1.63661 5.45312 1.62818 5.70216 1.62107L6.60857 1.60316L9.01976 1.58843L9.01936 1.58895Z" fill="#1A1A1A"/>
</svg>
