<svg width="66" height="66" viewBox="0 0 66 66" fill="none" xmlns="http://www.w3.org/2000/svg">
<path d="M38.5847 5.28876L42.2231 1.26953L48.9501 4.06184L48.6539 9.47722C48.4424 13.9195 52.0808 17.6003 56.5231 17.3465L61.9385 17.0503L64.7308 23.7772L60.7116 27.4157C57.4116 30.3772 57.4116 35.5811 60.7116 38.5426L64.7308 42.1811L61.9385 48.908L56.5231 48.6118C52.0808 48.4003 48.4001 52.0388 48.6539 56.4811L48.9501 61.8965L42.2231 64.7311L38.5847 60.7118C35.6231 57.4118 30.4193 57.4118 27.4578 60.7118L23.8193 64.7311L17.0924 61.9388L17.3885 56.5234C17.6001 52.0811 13.9616 48.4003 9.51929 48.6542L4.1039 48.9503L1.26929 42.2234L5.28852 38.5849C8.58852 35.6234 8.58852 30.4195 5.28852 27.458L1.26929 23.7772L4.0616 17.0503L9.47698 17.3465C13.9193 17.558 17.6001 13.9195 17.3462 9.47722L17.0924 4.06184L23.777 1.26953L27.4154 5.28876C30.4193 8.58876 35.5808 8.58876 38.5847 5.28876Z" stroke="#FF5641" stroke-width="2" stroke-miterlimit="10" stroke-linecap="round" stroke-linejoin="round"/>
<path d="M33.0001 44.6345C39.4257 44.6345 44.6347 39.4255 44.6347 32.9998C44.6347 26.5742 39.4257 21.3652 33.0001 21.3652C26.5745 21.3652 21.3655 26.5742 21.3655 32.9998C21.3655 39.4255 26.5745 44.6345 33.0001 44.6345Z" stroke="#1A1A1A" stroke-width="2" stroke-miterlimit="10" stroke-linecap="round" stroke-linejoin="round"/>
</svg>
