<svg width="66" height="55" viewBox="0 0 66 55" fill="none" xmlns="http://www.w3.org/2000/svg">
<path d="M35.5688 30.0723C41.4179 34.5039 49.4802 34.5039 55.3293 30.0723C60.5856 30.0723 64.8144 34.3061 64.8144 39.5687V47.878H40.7066" stroke="#1A1A1A" stroke-width="2" stroke-miterlimit="10" stroke-linecap="round" stroke-linejoin="round"/>
<path d="M35.5688 12.0688C35.5688 5.1839 39.9952 1.1875 45.4491 1.1875C50.903 1.1875 55.3293 5.1839 55.3293 12.0688C55.3293 18.9537 50.903 26.1156 45.4491 26.1156C39.9952 26.1156 35.5688 18.9537 35.5688 12.0688Z" stroke="#1A1A1A" stroke-width="2" stroke-miterlimit="10" stroke-linecap="round" stroke-linejoin="round"/>
<path d="M39.9161 53.8126H1.18555V45.5032C1.18555 40.2406 5.41429 36.0068 10.6706 36.0068C16.5197 40.4385 24.582 40.4385 30.4311 36.0068C35.6873 36.0068 39.9161 40.2406 39.9161 45.5032V53.8126Z" stroke="#FF5641" stroke-width="2" stroke-miterlimit="10" stroke-linecap="round" stroke-linejoin="round"/>
<path d="M30.4311 18.0034C30.4311 24.8883 26.0048 32.0501 20.5509 32.0501C15.097 32.0501 10.6707 24.8883 10.6707 18.0034C10.6707 11.1185 15.097 7.12207 20.5509 7.12207C26.0048 7.12207 30.4311 11.1185 30.4311 18.0034Z" stroke="#FF5641" stroke-width="2" stroke-miterlimit="10" stroke-linecap="round" stroke-linejoin="round"/>
<path d="M10.6706 36.0068C16.5197 40.4385 24.582 40.4385 30.4311 36.0068C35.6873 36.0068 39.9161 40.2406 39.9161 45.5032V53.8126H1.18555" stroke="#FF5641" stroke-width="2" stroke-miterlimit="10" stroke-linecap="round" stroke-linejoin="round"/>
<path d="M10.6707 18.0034C10.6707 11.1185 15.097 7.12207 20.5509 7.12207C26.0048 7.12207 30.4311 11.1185 30.4311 18.0034C30.4311 24.8883 26.0048 32.0501 20.5509 32.0501C15.097 32.0501 10.6707 24.8883 10.6707 18.0034Z" stroke="#FF5641" stroke-width="2" stroke-miterlimit="10" stroke-linecap="round" stroke-linejoin="round"/>
</svg>
